<mxfile host="app.diagrams.net" modified="2021-06-09T05:21:56.858Z" agent="5.0 (Windows NT 10.0; Win64; x64) AppleWebKit/537.36 (KHTML, like Gecko) Chrome/90.0.4430.85 Safari/537.36" etag="DgCFf6sVEtVRoQvoGzdE" version="14.7.6" type="github">
  <diagram id="kE0A7_xDF46XmdOOy0-5" name="Page-1">
    <mxGraphModel dx="1422" dy="762" grid="1" gridSize="10" guides="1" tooltips="1" connect="1" arrows="1" fold="1" page="1" pageScale="1" pageWidth="827" pageHeight="1169" math="0" shadow="0">
      <root>
        <mxCell id="0" />
        <mxCell id="1" parent="0" />
        <mxCell id="cEDnHxhPDUiLTpFMf11G-1" value="mina/activtiy-biz" style="shape=umlLifeline;perimeter=lifelinePerimeter;container=1;collapsible=0;recursiveResize=0;rounded=0;shadow=0;strokeWidth=1;" vertex="1" parent="1">
          <mxGeometry x="100" y="80" width="120" height="810" as="geometry" />
        </mxCell>
        <mxCell id="cEDnHxhPDUiLTpFMf11G-2" value="" style="points=[];perimeter=orthogonalPerimeter;rounded=0;shadow=0;strokeWidth=1;" vertex="1" parent="cEDnHxhPDUiLTpFMf11G-1">
          <mxGeometry x="45" y="70" width="10" height="740" as="geometry" />
        </mxCell>
        <mxCell id="cEDnHxhPDUiLTpFMf11G-3" value="保存活动商品" style="verticalAlign=bottom;startArrow=oval;endArrow=block;startSize=8;shadow=0;strokeWidth=1;" edge="1" parent="cEDnHxhPDUiLTpFMf11G-1" target="cEDnHxhPDUiLTpFMf11G-2">
          <mxGeometry relative="1" as="geometry">
            <mxPoint x="-15" y="70" as="sourcePoint" />
          </mxGeometry>
        </mxCell>
        <mxCell id="cEDnHxhPDUiLTpFMf11G-4" value="" style="points=[];perimeter=orthogonalPerimeter;rounded=0;shadow=0;strokeWidth=1;" vertex="1" parent="cEDnHxhPDUiLTpFMf11G-1">
          <mxGeometry x="60" y="140" width="10" height="40" as="geometry" />
        </mxCell>
        <mxCell id="cEDnHxhPDUiLTpFMf11G-5" value="" style="html=1;points=[];perimeter=orthogonalPerimeter;" vertex="1" parent="cEDnHxhPDUiLTpFMf11G-1">
          <mxGeometry x="60" y="240" width="10" height="65" as="geometry" />
        </mxCell>
        <mxCell id="cEDnHxhPDUiLTpFMf11G-6" value="" style="html=1;points=[];perimeter=orthogonalPerimeter;" vertex="1" parent="cEDnHxhPDUiLTpFMf11G-1">
          <mxGeometry x="60" y="340" width="10" height="60" as="geometry" />
        </mxCell>
        <mxCell id="cEDnHxhPDUiLTpFMf11G-7" value="" style="html=1;points=[];perimeter=orthogonalPerimeter;" vertex="1" parent="cEDnHxhPDUiLTpFMf11G-1">
          <mxGeometry x="60" y="440" width="10" height="70" as="geometry" />
        </mxCell>
        <mxCell id="cEDnHxhPDUiLTpFMf11G-8" value="" style="html=1;points=[];perimeter=orthogonalPerimeter;" vertex="1" parent="cEDnHxhPDUiLTpFMf11G-1">
          <mxGeometry x="60" y="570" width="10" height="60" as="geometry" />
        </mxCell>
        <mxCell id="cEDnHxhPDUiLTpFMf11G-9" value="" style="verticalAlign=bottom;endArrow=open;dashed=1;endSize=8;shadow=0;strokeWidth=1;" edge="1" parent="cEDnHxhPDUiLTpFMf11G-1">
          <mxGeometry relative="1" as="geometry">
            <mxPoint x="70" y="510" as="targetPoint" />
            <mxPoint x="560" y="510" as="sourcePoint" />
          </mxGeometry>
        </mxCell>
        <mxCell id="cEDnHxhPDUiLTpFMf11G-10" value="" style="verticalAlign=bottom;endArrow=open;dashed=1;endSize=8;shadow=0;strokeWidth=1;" edge="1" parent="cEDnHxhPDUiLTpFMf11G-1">
          <mxGeometry relative="1" as="geometry">
            <mxPoint x="70" y="620" as="targetPoint" />
            <mxPoint x="680" y="620" as="sourcePoint" />
          </mxGeometry>
        </mxCell>
        <mxCell id="cEDnHxhPDUiLTpFMf11G-11" value="循环同步逻辑" style="edgeStyle=orthogonalEdgeStyle;html=1;align=left;spacingLeft=2;endArrow=block;rounded=0;entryX=1;entryY=0;" edge="1" parent="cEDnHxhPDUiLTpFMf11G-1">
          <mxGeometry x="-0.2" y="20" relative="1" as="geometry">
            <mxPoint x="60" y="200" as="sourcePoint" />
            <Array as="points">
              <mxPoint x="90" y="200" />
            </Array>
            <mxPoint x="65" y="220" as="targetPoint" />
            <mxPoint as="offset" />
          </mxGeometry>
        </mxCell>
        <mxCell id="cEDnHxhPDUiLTpFMf11G-12" value="分布式锁" style="shape=umlLifeline;perimeter=lifelinePerimeter;container=1;collapsible=0;recursiveResize=0;rounded=0;shadow=0;strokeWidth=1;" vertex="1" parent="1">
          <mxGeometry x="250" y="80" width="100" height="810" as="geometry" />
        </mxCell>
        <mxCell id="cEDnHxhPDUiLTpFMf11G-13" value="" style="points=[];perimeter=orthogonalPerimeter;rounded=0;shadow=0;strokeWidth=1;" vertex="1" parent="cEDnHxhPDUiLTpFMf11G-12">
          <mxGeometry x="45" y="80" width="10" height="30" as="geometry" />
        </mxCell>
        <mxCell id="cEDnHxhPDUiLTpFMf11G-14" value="Get lock" style="verticalAlign=bottom;endArrow=block;entryX=0;entryY=0;shadow=0;strokeWidth=1;" edge="1" parent="1" source="cEDnHxhPDUiLTpFMf11G-2" target="cEDnHxhPDUiLTpFMf11G-13">
          <mxGeometry relative="1" as="geometry">
            <mxPoint x="275" y="160" as="sourcePoint" />
          </mxGeometry>
        </mxCell>
        <mxCell id="cEDnHxhPDUiLTpFMf11G-15" value="商品库" style="shape=umlLifeline;perimeter=lifelinePerimeter;container=1;collapsible=0;recursiveResize=0;rounded=0;shadow=0;strokeWidth=1;" vertex="1" parent="1">
          <mxGeometry x="370" y="80" width="100" height="660" as="geometry" />
        </mxCell>
        <mxCell id="cEDnHxhPDUiLTpFMf11G-16" value="" style="points=[];perimeter=orthogonalPerimeter;rounded=0;shadow=0;strokeWidth=1;" vertex="1" parent="cEDnHxhPDUiLTpFMf11G-15">
          <mxGeometry x="45" y="140" width="10" height="40" as="geometry" />
        </mxCell>
        <mxCell id="cEDnHxhPDUiLTpFMf11G-17" value="关系服务" style="shape=umlLifeline;perimeter=lifelinePerimeter;container=1;collapsible=0;recursiveResize=0;rounded=0;shadow=0;strokeWidth=1;" vertex="1" parent="1">
          <mxGeometry x="490" y="80" width="100" height="660" as="geometry" />
        </mxCell>
        <mxCell id="cEDnHxhPDUiLTpFMf11G-18" value="" style="points=[];perimeter=orthogonalPerimeter;rounded=0;shadow=0;strokeWidth=1;" vertex="1" parent="cEDnHxhPDUiLTpFMf11G-17">
          <mxGeometry x="45" y="252.5" width="10" height="40" as="geometry" />
        </mxCell>
        <mxCell id="cEDnHxhPDUiLTpFMf11G-19" value="活动商品" style="shape=umlLifeline;perimeter=lifelinePerimeter;container=1;collapsible=0;recursiveResize=0;rounded=0;shadow=0;strokeWidth=1;" vertex="1" parent="1">
          <mxGeometry x="610" y="80" width="100" height="660" as="geometry" />
        </mxCell>
        <mxCell id="cEDnHxhPDUiLTpFMf11G-20" value="" style="points=[];perimeter=orthogonalPerimeter;rounded=0;shadow=0;strokeWidth=1;" vertex="1" parent="cEDnHxhPDUiLTpFMf11G-19">
          <mxGeometry x="45" y="340" width="10" height="210" as="geometry" />
        </mxCell>
        <mxCell id="cEDnHxhPDUiLTpFMf11G-21" value="" style="points=[];perimeter=orthogonalPerimeter;rounded=0;shadow=0;strokeWidth=1;" vertex="1" parent="1">
          <mxGeometry x="775" y="650" width="10" height="65" as="geometry" />
        </mxCell>
        <mxCell id="cEDnHxhPDUiLTpFMf11G-22" value="成功，任务开始" style="verticalAlign=bottom;endArrow=open;dashed=1;endSize=8;exitX=0;exitY=0.95;shadow=0;strokeWidth=1;" edge="1" parent="1">
          <mxGeometry relative="1" as="geometry">
            <mxPoint x="160" y="189.99999999999977" as="targetPoint" />
            <mxPoint x="290" y="189.99999999999977" as="sourcePoint" />
          </mxGeometry>
        </mxCell>
        <mxCell id="cEDnHxhPDUiLTpFMf11G-23" value="根据goodsId查找该商品相关数据" style="verticalAlign=bottom;endArrow=block;shadow=0;strokeWidth=1;exitX=1.3;exitY=-0.033;exitDx=0;exitDy=0;exitPerimeter=0;" edge="1" parent="1" source="cEDnHxhPDUiLTpFMf11G-4" target="cEDnHxhPDUiLTpFMf11G-15">
          <mxGeometry x="0.2738" y="9" relative="1" as="geometry">
            <mxPoint x="170" y="220" as="sourcePoint" />
            <mxPoint x="350" y="222" as="targetPoint" />
            <mxPoint as="offset" />
          </mxGeometry>
        </mxCell>
        <mxCell id="cEDnHxhPDUiLTpFMf11G-24" value="" style="verticalAlign=bottom;endArrow=open;dashed=1;endSize=8;shadow=0;strokeWidth=1;entryX=0.7;entryY=1.05;entryDx=0;entryDy=0;entryPerimeter=0;" edge="1" parent="1" source="cEDnHxhPDUiLTpFMf11G-15" target="cEDnHxhPDUiLTpFMf11G-4">
          <mxGeometry relative="1" as="geometry">
            <mxPoint x="160" y="249.99999999999977" as="targetPoint" />
            <mxPoint x="290" y="249.99999999999977" as="sourcePoint" />
          </mxGeometry>
        </mxCell>
        <mxCell id="cEDnHxhPDUiLTpFMf11G-25" value="分页查询关联关系" style="verticalAlign=bottom;endArrow=block;shadow=0;strokeWidth=1;entryX=0.5;entryY=0.05;entryDx=0;entryDy=0;entryPerimeter=0;exitX=1;exitY=0.2;exitDx=0;exitDy=0;exitPerimeter=0;" edge="1" parent="1" source="cEDnHxhPDUiLTpFMf11G-5" target="cEDnHxhPDUiLTpFMf11G-18">
          <mxGeometry x="0.1053" y="10" relative="1" as="geometry">
            <mxPoint x="190" y="302" as="sourcePoint" />
            <mxPoint x="520" y="302" as="targetPoint" />
            <mxPoint as="offset" />
            <Array as="points" />
          </mxGeometry>
        </mxCell>
        <mxCell id="cEDnHxhPDUiLTpFMf11G-26" value="" style="verticalAlign=bottom;endArrow=open;dashed=1;endSize=8;shadow=0;strokeWidth=1;exitX=0.5;exitY=1.075;exitDx=0;exitDy=0;exitPerimeter=0;entryX=0.9;entryY=0.814;entryDx=0;entryDy=0;entryPerimeter=0;" edge="1" parent="1" source="cEDnHxhPDUiLTpFMf11G-18" target="cEDnHxhPDUiLTpFMf11G-5">
          <mxGeometry relative="1" as="geometry">
            <mxPoint x="190" y="340" as="targetPoint" />
            <mxPoint x="530" y="340" as="sourcePoint" />
          </mxGeometry>
        </mxCell>
        <mxCell id="cEDnHxhPDUiLTpFMf11G-27" value="根据actGoodsId和actId查询活动商品" style="verticalAlign=bottom;endArrow=block;shadow=0;strokeWidth=1;exitX=0.9;exitY=0.15;exitDx=0;exitDy=0;exitPerimeter=0;entryX=0.2;entryY=0.033;entryDx=0;entryDy=0;entryPerimeter=0;" edge="1" parent="1" source="cEDnHxhPDUiLTpFMf11G-6" target="cEDnHxhPDUiLTpFMf11G-20">
          <mxGeometry x="0.2198" y="10" relative="1" as="geometry">
            <mxPoint x="210" y="390" as="sourcePoint" />
            <mxPoint x="650" y="390" as="targetPoint" />
            <mxPoint as="offset" />
            <Array as="points" />
          </mxGeometry>
        </mxCell>
        <mxCell id="cEDnHxhPDUiLTpFMf11G-28" value="" style="verticalAlign=bottom;endArrow=open;dashed=1;endSize=8;shadow=0;strokeWidth=1;" edge="1" parent="1">
          <mxGeometry relative="1" as="geometry">
            <mxPoint x="170" y="470" as="targetPoint" />
            <mxPoint x="660" y="470" as="sourcePoint" />
          </mxGeometry>
        </mxCell>
        <mxCell id="cEDnHxhPDUiLTpFMf11G-29" value="执行同步逻辑" style="verticalAlign=bottom;endArrow=block;shadow=0;strokeWidth=1;exitX=1.1;exitY=0.05;exitDx=0;exitDy=0;exitPerimeter=0;entryX=0.2;entryY=0.505;entryDx=0;entryDy=0;entryPerimeter=0;" edge="1" parent="1" source="cEDnHxhPDUiLTpFMf11G-7" target="cEDnHxhPDUiLTpFMf11G-20">
          <mxGeometry x="-0.0143" y="10" relative="1" as="geometry">
            <mxPoint x="200" y="530" as="sourcePoint" />
            <mxPoint x="650" y="524" as="targetPoint" />
            <mxPoint as="offset" />
            <Array as="points" />
          </mxGeometry>
        </mxCell>
        <mxCell id="cEDnHxhPDUiLTpFMf11G-30" value="更新同步进度" style="verticalAlign=bottom;endArrow=block;shadow=0;strokeWidth=1;entryX=0.1;entryY=0.043;entryDx=0;entryDy=0;entryPerimeter=0;exitX=0.6;exitY=0.029;exitDx=0;exitDy=0;exitPerimeter=0;" edge="1" parent="1" source="cEDnHxhPDUiLTpFMf11G-8" target="cEDnHxhPDUiLTpFMf11G-21">
          <mxGeometry x="0.0173" y="10" relative="1" as="geometry">
            <mxPoint x="180" y="633" as="sourcePoint" />
            <mxPoint x="657" y="630" as="targetPoint" />
            <mxPoint as="offset" />
            <Array as="points" />
          </mxGeometry>
        </mxCell>
        <mxCell id="cEDnHxhPDUiLTpFMf11G-31" value="" style="html=1;points=[];perimeter=orthogonalPerimeter;" vertex="1" parent="1">
          <mxGeometry x="150" y="300" width="10" height="420" as="geometry" />
        </mxCell>
        <mxCell id="cEDnHxhPDUiLTpFMf11G-32" value="" style="html=1;points=[];perimeter=orthogonalPerimeter;" vertex="1" parent="1">
          <mxGeometry x="295" y="770" width="10" height="80" as="geometry" />
        </mxCell>
        <mxCell id="cEDnHxhPDUiLTpFMf11G-33" value="release lock" style="html=1;verticalAlign=bottom;endArrow=block;entryX=0;entryY=0;" edge="1" parent="1" target="cEDnHxhPDUiLTpFMf11G-32">
          <mxGeometry relative="1" as="geometry">
            <mxPoint x="155" y="770" as="sourcePoint" />
          </mxGeometry>
        </mxCell>
        <mxCell id="cEDnHxhPDUiLTpFMf11G-34" value="任务完成" style="html=1;verticalAlign=bottom;endArrow=open;dashed=1;endSize=8;exitX=0;exitY=0.95;entryX=0.492;entryY=0.947;entryDx=0;entryDy=0;entryPerimeter=0;" edge="1" parent="1" source="cEDnHxhPDUiLTpFMf11G-32" target="cEDnHxhPDUiLTpFMf11G-1">
          <mxGeometry relative="1" as="geometry">
            <mxPoint x="170" y="816" as="targetPoint" />
          </mxGeometry>
        </mxCell>
      </root>
    </mxGraphModel>
  </diagram>
</mxfile>
